<?xml version="1.0" encoding="utf-8"?>
<svg id="master-artboard" viewBox="0 0 1300 1300" version="1.1" xmlns="http://www.w3.org/2000/svg" x="0px" y="0px" style="enable-background:new 0 0 336 235.2;" width="1300px" height="1300px"><rect id="ee-background" x="0" y="0" width="1300" height="1300" style="fill: white; fill-opacity: 0; pointer-events: none;" transform="matrix(1, 0, 0, 1, 0, 3)"/><g transform="matrix(1, 0, 0, 1, -45, 210)"><g transform="matrix(1.6556313803349438, 0, 0, 5.002144026146561, 56.740498632971324, -100.01113630457402)"><g><g id="g-22" transform="matrix(1, 0, 0, 1, 0, 0)">
	
<g id="g-23">
		
	<path class="st0" d="M58,49h100v100H58V49z" style="fill: rgb(235, 255, 247);"/></g></g><g transform="matrix(0.6039992102785899, 0, 0, 0.19991428235879088, -34.27121573463751, 19.993655064280603)"><g transform="matrix(1.3321815729141235, 0, 0, 4.024908065795898, 1029.5906982421875, -11.738266944885254)"><g id="g-24" transform="matrix(1, 0, 0, 1, 0, 0)">
	<g id="g-25">
		<path class="st0" d="M58,49h100v100H58V49z" style="fill: rgb(235, 255, 247);"/>
	</g>
</g></g><g transform="matrix(8.356980323791504, 0, 0, 7.0647735595703125, -199.65911865234375, -307.9186096191406)"><g id="g-18" transform="matrix(1, 0, 0, 1, 0, 0)">
	<g id="g-19">
		<path class="st0" d="M58,49h100v100H58V49z" style="fill: rgb(235, 255, 247);"/>
	</g>
</g></g><g transform="matrix(2.7000927925109863, 1.7780425548553467, -1.7780425548553467, 2.7000927925109863, 1357.868896484375, -490.9611511230469)"><g id="g-14" transform="matrix(1.0373929738998413, 0.04366780817508692, -0.04366780817508692, 1.0373929738998413, 13.666573908249632, -25.815017492164998)">
	<g id="g-15">
		<path class="st0" d="M103,336.5L53,424h100L103,336.5" style="fill: rgb(235, 255, 247);"/>
	</g>
</g></g><g id="g-12" transform="matrix(2.6267824172973633, 0, 0, 3.029273509979248, -603.687744140625, 302.57708740234375)">
	<g id="g-13">
		<path class="st0" d="M652,46c27.6,0,50,22.4,50,50s-22.4,50-50,50s-50-22.4-50-50S624.4,46,652,46z" style="fill: rgb(235, 255, 247);"/>
	</g>
</g><g id="g-10" transform="matrix(2.6267824172973633, 0, 0, 3.029273509979248, -1428.4388427734377, 302.22198486328125)">
	<g id="g-11">
		<path class="st0" d="M652,46c27.6,0,50,22.4,50,50s-22.4,50-50,50s-50-22.4-50-50S624.4,46,652,46z" style="fill: rgb(235, 255, 247);"/>
	</g>
</g><g id="g-8" transform="matrix(2.6267824172973633, 0, 0, 3.029273509979248, -603.8653564453125, -101.38722229003906)">
	<g id="g-9">
		<path class="st0" d="M652,46c27.6,0,50,22.4,50,50s-22.4,50-50,50s-50-22.4-50-50S624.4,46,652,46z" style="fill: rgb(235, 255, 247);"/>
	</g>
</g><g transform="matrix(2.6267824172973633, 0, 0, 3.029273509979248, -1428.6164550781252, -100.97291564941406)"><g id="g-6" transform="matrix(1, 0, 0, 1, 0, 0)">
	<g id="g-7">
		<path class="st0" d="M652,46c27.6,0,50,22.4,50,50s-22.4,50-50,50s-50-22.4-50-50S624.4,46,652,46z" style="fill: rgb(235, 255, 247);"/>
	</g>
</g><path d="M 702.8064575195312 91.45454406738281" style="fill: rgb(235, 255, 247); fill-opacity: 1; stroke: rgb(0, 0, 0); stroke-opacity: 1; stroke-width: 0; paint-order: fill;"/></g></g></g></g></g><g transform="matrix(2.3260722160339355, 0, 0, 2.3260722160339355, 77.761962890625, 129.5826187133789)"><g>
	<g>
		<path d="M393.872,454.517c-2.304,0-4.583-0.804-6.412-2.354l-99.315-84.194H68.115C30.556,367.968,0,337.242,0,299.474V103.977&#10;&#9;&#9;&#9;c0-37.768,30.556-68.494,68.115-68.494h353.77c37.559,0,68.115,30.727,68.115,68.494v195.497&#10;&#9;&#9;&#9;c0,37.768-30.556,68.494-68.115,68.494h-18.071v76.549c0,3.891-2.243,7.428-5.752,9.067&#10;&#9;&#9;&#9;C396.723,454.21,395.293,454.517,393.872,454.517z M68.115,55.483c-26.592,0-48.226,21.754-48.226,48.494v195.497&#10;&#9;&#9;&#9;c0,26.739,21.634,48.494,48.226,48.494h223.662c2.346,0,4.616,0.834,6.411,2.354l85.737,72.685v-65.039c0-5.523,4.453-10,9.945-10&#10;&#9;&#9;&#9;h28.015c26.592,0,48.226-21.755,48.226-48.494V103.977c0-26.74-21.634-48.494-48.226-48.494H68.115z" style="fill: rgb(112, 111, 110);"/>
	</g>
	
</g><g>
</g><g>
</g><g>
</g><g>
</g><g>
</g><g>
</g><g>
</g><g>
</g><g>
</g><g>
</g><g>
</g><g>
</g><g>
</g><g>
</g><g>
</g></g><g transform="matrix(2.4606773853302, 0, 0, 2.4606773853302, 93.26953125, 153.9033203125)"><g id="XMLID_9_" transform="matrix(-0.7337436079978945, -0.1924756914377213, -0.1924756914377213, 0.7337436079978945, 438.492435864816, 62.165822721834004)">
	<g>
		<path d="M 417.3500061035156 399.114990234375 L 430.54998779296875 428.0350036621094 L 422.67999267578125 431.0050048828125 L 382.0400085449219 412.4549865722656 Z" style="fill:#6A7075;"/>
		<path d="M 378.1300048828125 313.1549987792969 L 413.6099853515625 390.9049987792969 L 370.510009765625 407.19500732421875 L 311.1700134277344 380.114990234375 Z" style="fill:#FFCC73;"/>
		
			<path d="M 45.639 91.366997 H 144.302002 V 102.552997 H 45.639 V 91.366997 Z" transform="matrix(0.7072 -0.7071 0.7071 0.7072 -40.7449 95.5431)" style="fill:#A7B6C4;"/>
		
			<path d="M 31.367001 77.086998 H 130.022999 V 88.272998 H 31.367001 V 77.086998 Z" transform="matrix(0.7071 -0.7071 0.7071 0.7071 -34.8286 81.2764)" style="fill:#A7B6C4;"/>
		<path style="fill:#F97946;" d="M105.26,37.485l-69.76,69.76l-20.9-20.89c-3.61-3.61-5.6-8.42-5.6-13.53s1.99-9.91,5.61-13.53&#10;&#9;&#9;&#9;l42.71-42.71c3.61-3.61,8.41-5.6,13.52-5.6c5.11,0,9.91,1.99,13.52,5.6L105.26,37.485z"/>
		<path d="M 315.239990234375 363.31500244140625 L 303.3999938964844 375.1549987792969 L 70.41000366210938 142.15499877929688 L 82.25 130.3249969482422 Z" style="fill:#60A57C;"/>
		<path d="M 373.1700134277344 305.385009765625 L 361.3299865722656 317.2349853515625 L 128.3300018310547 84.23500061035156 L 140.1699981689453 72.3949966430664 Z" style="fill:#60A57C;"/>
		<path d="M 121.97000122070312 90.59500122070312 L 354.9599914550781 323.5950012207031 L 321.6099853515625 356.9549865722656 L 88.61000061035156 123.95500183105469 Z" style="fill:#6BCE95;"/>
		<path d="M383.29,302.775l59.44,130.28l-20.38,7.69l-121.55-55.47L8.24,92.725C2.92,87.405,0,80.345,0,72.825&#10;&#9;&#9;&#9;c0-7.51,2.92-14.58,8.24-19.89l42.71-42.71c5.31-5.31,12.38-8.24,19.89-8.24c7.51,0,14.57,2.93,19.89,8.24L383.29,302.775z&#10;&#9;&#9;&#9; M430.55,428.035l-13.2-28.92l-35.31,13.34l40.64,18.55L430.55,428.035z M413.61,390.905l-35.48-77.75l-66.96,66.96l59.34,27.08&#10;&#9;&#9;&#9;L413.61,390.905z M361.33,317.235l11.84-11.85l-233-232.99l-11.84,11.84L361.33,317.235z M354.96,323.595l-232.99-233&#10;&#9;&#9;&#9;l-33.36,33.36l233,233L354.96,323.595z M303.4,375.155l11.84-11.84L82.25,130.325l-11.84,11.83L303.4,375.155z M64.04,135.795&#10;&#9;&#9;&#9;l69.77-69.76l-7.91-7.91l-69.77,69.76L64.04,135.795z M49.77,121.515l69.76-69.76l-7.91-7.91l-69.76,69.76L49.77,121.515z&#10;&#9;&#9;&#9; M35.5,107.245l69.76-69.76l-20.9-20.9c-3.61-3.61-8.41-5.6-13.52-5.6c-5.11,0-9.91,1.99-13.52,5.6l-42.71,42.71&#10;&#9;&#9;&#9;C10.99,62.915,9,67.715,9,72.825s1.99,9.92,5.6,13.53L35.5,107.245z"/>
	</g>
</g><g>
</g><g>
</g><g>
</g><g>
</g><g>
</g><g>
</g><g>
</g><g>
</g><g>
</g><g>
</g><g>
</g><g>
</g><g>
</g><g>
</g><g>
</g></g><g transform="matrix(7.859163284301758, 0, 0, 1.313391089439392, -69.61796569824219, 343.8363037109375)"><g id="g-5" transform="matrix(1.2938005600542966, 0, 0, 5.15699602270186, -51.27224305291239, -323.2280648360545)">
	
</g><path d="M 63.795143127441406 100.6129150390625" style="fill: rgb(255, 255, 255); fill-opacity: 1; stroke: rgb(0, 0, 0); stroke-opacity: 1; stroke-width: 0; paint-order: fill;" transform="matrix(1.2938005600542966, 0, 0, 5.15699602270186, -51.27224305291239, -323.2280648360545)"/></g></svg>