<?xml version="1.0" encoding="utf-8"?>
<svg id="master-artboard" viewBox="0 0 1400 980" version="1.1" xmlns="http://www.w3.org/2000/svg" x="0px" y="0px" style="enable-background:new 0 0 336 235.2;" width="1400px" height="980px"><rect id="ee-background" x="0" y="0" width="1400" height="980" style="fill: white; fill-opacity: 0; pointer-events: none;"/>














<g transform="matrix(0.5728934407234192, -0.0012601354392245412, 0.0012601354392245412, 0.5728934407234192, 193.03369514734368, 21.539352416992188)"><g id="comment"><g><path d="M1216.598,1657.973c-15.035,0-29.926-4.822-41.984-14.746l-439.527-361.254H158.332    C71.515,1281.973,0,1209.012,0,1120.074V160.168C0,71.627,71.515,0.973,158.332,0.973h1374.836    c87.743,0,158.832,70.655,158.832,159.195v959.909c0,88.938-71.089,161.896-158.832,161.896H1282v309.93    c0,25.561-14.415,48.826-37.528,59.744C1235.479,1655.892,1226.173,1657.973,1216.598,1657.973z M158.332,132.973    c-13.953,0-25.332,11.52-25.332,27.195v959.906c0,15.805,11.615,29.898,25.332,29.898H758.77c15.311,0,29.89,4.95,41.715,14.674    L1150,1451.998v-236.699c0-36.49,30.096-65.326,66.586-65.326h316.582c14.123,0,26.832-14.639,26.832-29.896V160.168    c0-15.146-12.457-27.195-26.832-27.195H158.332z"/></g></g><g id="Layer_1"/></g><g transform="matrix(-0.656851589679718, -0.2368106096982956, -0.2368106096982956, 0.656851589679718, 1007.9421997070314, 170.83126831054688)"><g id="XMLID_9_" transform="matrix(2.2462032398411957, 0.33495033650686934, -0.33495033650686934, 2.2462032398411957, -103.79468080017836, -114.43531330435096)">
	<g>
		<path d="M 417.3500061035156 399.114990234375 L 430.54998779296875 428.0350036621094 L 422.67999267578125 431.0050048828125 L 382.0400085449219 412.4549865722656 Z" style="fill:#6A7075;"/>
		<path d="M 378.1300048828125 313.1549987792969 L 413.6099853515625 390.9049987792969 L 370.510009765625 407.19500732421875 L 311.1700134277344 380.114990234375 Z" style="fill:#FFCC73;"/>
		
			<path d="M 45.639 91.366997 H 144.302002 V 102.552997 H 45.639 V 91.366997 Z" transform="matrix(0.7072 -0.7071 0.7071 0.7072 -40.7449 95.5431)" style="fill:#A7B6C4;"/>
		
			<path d="M 31.367001 77.086998 H 130.022999 V 88.272998 H 31.367001 V 77.086998 Z" transform="matrix(0.7071 -0.7071 0.7071 0.7071 -34.8286 81.2764)" style="fill:#A7B6C4;"/>
		<path style="fill:#F97946;" d="M105.26,37.485l-69.76,69.76l-20.9-20.89c-3.61-3.61-5.6-8.42-5.6-13.53s1.99-9.91,5.61-13.53&#10;&#9;&#9;&#9;l42.71-42.71c3.61-3.61,8.41-5.6,13.52-5.6c5.11,0,9.91,1.99,13.52,5.6L105.26,37.485z"/>
		<path d="M 315.239990234375 363.31500244140625 L 303.3999938964844 375.1549987792969 L 70.41000366210938 142.15499877929688 L 82.25 130.3249969482422 Z" style="fill:#60A57C;"/>
		<path d="M 373.1700134277344 305.385009765625 L 361.3299865722656 317.2349853515625 L 128.3300018310547 84.23500061035156 L 140.1699981689453 72.3949966430664 Z" style="fill:#60A57C;"/>
		<path d="M 121.97000122070312 90.59500122070312 L 354.9599914550781 323.5950012207031 L 321.6099853515625 356.9549865722656 L 88.61000061035156 123.95500183105469 Z" style="fill:#6BCE95;"/>
		<path d="M383.29,302.775l59.44,130.28l-20.38,7.69l-121.55-55.47L8.24,92.725C2.92,87.405,0,80.345,0,72.825&#10;&#9;&#9;&#9;c0-7.51,2.92-14.58,8.24-19.89l42.71-42.71c5.31-5.31,12.38-8.24,19.89-8.24c7.51,0,14.57,2.93,19.89,8.24L383.29,302.775z&#10;&#9;&#9;&#9; M430.55,428.035l-13.2-28.92l-35.31,13.34l40.64,18.55L430.55,428.035z M413.61,390.905l-35.48-77.75l-66.96,66.96l59.34,27.08&#10;&#9;&#9;&#9;L413.61,390.905z M361.33,317.235l11.84-11.85l-233-232.99l-11.84,11.84L361.33,317.235z M354.96,323.595l-232.99-233&#10;&#9;&#9;&#9;l-33.36,33.36l233,233L354.96,323.595z M303.4,375.155l11.84-11.84L82.25,130.325l-11.84,11.83L303.4,375.155z M64.04,135.795&#10;&#9;&#9;&#9;l69.77-69.76l-7.91-7.91l-69.77,69.76L64.04,135.795z M49.77,121.515l69.76-69.76l-7.91-7.91l-69.76,69.76L49.77,121.515z&#10;&#9;&#9;&#9; M35.5,107.245l69.76-69.76l-20.9-20.9c-3.61-3.61-8.41-5.6-13.52-5.6c-5.11,0-9.91,1.99-13.52,5.6l-42.71,42.71&#10;&#9;&#9;&#9;C10.99,62.915,9,67.715,9,72.825s1.99,9.92,5.6,13.53L35.5,107.245z"/>
	</g>
</g><g>
</g><g>
</g><g>
</g><g>
</g><g>
</g><g>
</g><g>
</g><g>
</g><g>
</g><g>
</g><g>
</g><g>
</g><g>
</g><g>
</g><g>
</g></g></svg>